<?xml version="1.0" encoding="UTF-8" standalone="no"?>
<!-- Created with Inkscape (http://www.inkscape.org/) -->

<svg
   xmlns:dc="http://purl.org/dc/elements/1.1/"
   xmlns:cc="http://creativecommons.org/ns#"
   xmlns:rdf="http://www.w3.org/1999/02/22-rdf-syntax-ns#"
   xmlns:svg="http://www.w3.org/2000/svg"
   xmlns="http://www.w3.org/2000/svg"
   xmlns:sodipodi="http://sodipodi.sourceforge.net/DTD/sodipodi-0.dtd"
   xmlns:inkscape="http://www.inkscape.org/namespaces/inkscape"
   id="svg2848"
   version="1.1"
   inkscape:version="0.47 r22583"
   width="512"
   height="512"
   sodipodi:docname="12 x 12.svg">
  <metadata
     id="metadata2854">
    <rdf:RDF>
      <cc:Work
         rdf:about="">
        <dc:format>image/svg+xml</dc:format>
        <dc:type
           rdf:resource="http://purl.org/dc/dcmitype/StillImage" />
        <dc:title></dc:title>
      </cc:Work>
    </rdf:RDF>
  </metadata>
  <defs
     id="defs2852">
    <inkscape:perspective
       sodipodi:type="inkscape:persp3d"
       inkscape:vp_x="0 : 0.5 : 1"
       inkscape:vp_y="0 : 1000 : 0"
       inkscape:vp_z="1 : 0.5 : 1"
       inkscape:persp3d-origin="0.5 : 0.33333333 : 1"
       id="perspective2856" />
    <inkscape:perspective
       id="perspective3164"
       inkscape:persp3d-origin="0.5 : 0.33333333 : 1"
       inkscape:vp_z="1 : 0.5 : 1"
       inkscape:vp_y="0 : 1000 : 0"
       inkscape:vp_x="0 : 0.5 : 1"
       sodipodi:type="inkscape:persp3d" />
    <inkscape:perspective
       id="perspective3192"
       inkscape:persp3d-origin="0.5 : 0.33333333 : 1"
       inkscape:vp_z="1 : 0.5 : 1"
       inkscape:vp_y="0 : 1000 : 0"
       inkscape:vp_x="0 : 0.5 : 1"
       sodipodi:type="inkscape:persp3d" />
    <inkscape:perspective
       id="perspective3233"
       inkscape:persp3d-origin="0.5 : 0.33333333 : 1"
       inkscape:vp_z="1 : 0.5 : 1"
       inkscape:vp_y="0 : 1000 : 0"
       inkscape:vp_x="0 : 0.5 : 1"
       sodipodi:type="inkscape:persp3d" />
    <inkscape:perspective
       id="perspective3264"
       inkscape:persp3d-origin="0.5 : 0.33333333 : 1"
       inkscape:vp_z="1 : 0.5 : 1"
       inkscape:vp_y="0 : 1000 : 0"
       inkscape:vp_x="0 : 0.5 : 1"
       sodipodi:type="inkscape:persp3d" />
    <inkscape:perspective
       id="perspective3278"
       inkscape:persp3d-origin="0.5 : 0.33333333 : 1"
       inkscape:vp_z="1 : 0.5 : 1"
       inkscape:vp_y="0 : 1000 : 0"
       inkscape:vp_x="0 : 0.5 : 1"
       sodipodi:type="inkscape:persp3d" />
    <inkscape:perspective
       id="perspective3312"
       inkscape:persp3d-origin="0.5 : 0.33333333 : 1"
       inkscape:vp_z="1 : 0.5 : 1"
       inkscape:vp_y="0 : 1000 : 0"
       inkscape:vp_x="0 : 0.5 : 1"
       sodipodi:type="inkscape:persp3d" />
    <inkscape:perspective
       id="perspective2934"
       inkscape:persp3d-origin="0.5 : 0.33333333 : 1"
       inkscape:vp_z="1 : 0.5 : 1"
       inkscape:vp_y="0 : 1000 : 0"
       inkscape:vp_x="0 : 0.5 : 1"
       sodipodi:type="inkscape:persp3d" />
    <inkscape:perspective
       id="perspective2834"
       inkscape:persp3d-origin="0.5 : 0.33333333 : 1"
       inkscape:vp_z="1 : 0.5 : 1"
       inkscape:vp_y="0 : 1000 : 0"
       inkscape:vp_x="0 : 0.5 : 1"
       sodipodi:type="inkscape:persp3d" />
  </defs>
  <sodipodi:namedview
     pagecolor="#ffffff"
     bordercolor="#666666"
     borderopacity="1"
     objecttolerance="10"
     gridtolerance="10"
     guidetolerance="10"
     inkscape:pageopacity="0"
     inkscape:pageshadow="2"
     inkscape:window-width="1366"
     inkscape:window-height="706"
     id="namedview2850"
     showgrid="false"
     inkscape:zoom="0.50461739"
     inkscape:cx="138.13222"
     inkscape:cy="423.19155"
     inkscape:window-x="-8"
     inkscape:window-y="-8"
     inkscape:window-maximized="1"
     inkscape:current-layer="svg2848"
     showguides="true"
     inkscape:guide-bbox="true" />
  <path
     style="fill:#502d16"
     d="m 90.649508,23.386025 c -4.68483,0.07168 -8.96037,0.93235 -14.3125,2.71875 -8.674256,2.89524 -25.65336,11.38054 -35.4375,17.71875 -11.57472,7.49816 -17.26968,8.69905 -21.5,4.46875 -3.00807,-2.22412 -1.82972,-10.99122 -5.75,-5.9375 -7.3308816,15.09642 8.83142,23.91597 21.25,26.28125 15.4451,2.14727 33.297684,-0.68705 47.875,-7.59375 9.45347,-4.47904 15.15068,-9.13216 19.875002,-16.28125 2.72261,-4.11999 4.07838,-6.16406 5.875,-6.09375 0.13179,0.0052 0.23485,-0.02586 0.34375,-0.03125 0.10515,0.0047 0.18633,0.03619 0.3125,0.03125 1.79662,-0.07031 3.18364,1.97376 5.90625,6.09375 4.72432,7.14909 10.39028,11.80221 19.84375,16.28125 14.57732,6.9067 32.46115,9.74102 47.90625,7.59375 12.41858,-2.36528 28.54963,-11.18483 21.21875,-26.28125 -3.92028,-5.05372 -2.74193,3.71338 -5.75,5.9375 -4.23032,4.2303 -9.92528,3.02941 -21.5,-4.46875 -9.78414,-6.33821 -26.73199,-14.82351 -35.40625,-17.71875 -8.5634,-2.85824 -14.41154,-3.33927 -23.5,-2 -3.36422,0.49575 -5.91182,0.7709 -8.5,0.75 -0.0832,-6.7e-4 -0.16671,0.0013 -0.25,0 -0.27648,0.0094 -0.53825,-0.0024 -0.8125,0 -2.59485,0.02249 -5.12744,-0.25302 -8.500002,-0.75 -3.40817,-0.50223 -6.3766,-0.76176 -9.1875,-0.71875 z"
     id="path2837-1-7" />
</svg>
