<?xml version="1.0" encoding="UTF-8" standalone="no"?>
<svg width="512px" height="100px" viewBox="0 0 512 100" version="1.1" xmlns="http://www.w3.org/2000/svg" xmlns:xlink="http://www.w3.org/1999/xlink" xmlns:sketch="http://www.bohemiancoding.com/sketch/ns">
    <title>512</title>
    <description>Created with Sketch (http://www.bohemiancoding.com/sketch)</description>
    <defs></defs>
    <g id="Page-1" stroke="none" stroke-width="1" fill="none" fill-rule="evenodd" sketch:type="MSPage">
        <g id="512" sketch:type="MSArtboardGroup" fill="#000000">
            <g id="mustache1" sketch:type="MSLayerGroup" transform="translate(94.000000, 0.000000)">
                <path d="M41.2317078,0.57760444 C27.9462099,0.537491622 16.7808709,8.91842059 9.78265902,20.19629 C2.64786164,32.9193882 -1.69888194,48.1272727 1.64928434,62.8348906 C5.20673764,76.6908454 15.9059604,88.3218591 29.2534651,93.396659 C44.9239483,98.1433635 61.0141887,100.267608 77.4129018,99.1146678 C81.9083925,98.919735 82.6555193,98.8398879 83.0323243,98.7203224 C83.2298756,98.6577003 84.2147297,98.5752033 85.2012242,98.5231497 C101.197203,97.6335852 117.211162,93.2542845 131.881869,86.9885456 C141.17872,82.5465281 150.267357,78.4751796 158.943824,71.5104871 C159.987783,70.5588369 161.025479,69.5859425 162.000002,68.5528995 C162.974524,69.5859425 164.01222,70.5588369 165.056179,71.5104871 C173.732646,78.4751796 182.821283,82.5465281 192.118134,86.9885456 C206.788842,93.2542845 222.8028,97.6335852 238.798776,98.5231497 C239.78527,98.5752033 240.770124,98.6577003 240.967676,98.7203224 C241.344481,98.8398879 242.091608,98.919735 246.587098,99.1146678 C262.985811,100.267608 279.076052,98.1433635 294.746535,93.396659 C308.09404,88.3218591 318.793262,76.6908454 322.350716,62.8348906 C325.698882,48.1272727 321.352138,32.9193882 314.217341,20.19629 C307.219129,8.91842059 296.05379,0.537491622 282.768292,0.57760444 C267.965653,1.25742443 263.463853,13.725523 263.642538,26.9001625 C264.158989,31.0716274 265.093761,35.2148572 267.240941,38.829112 C269.952129,44.0901061 274.374713,48.1240548 274.043399,39.6670961 C270.606647,17.6546233 292.025504,9.34141128 302.584151,31.9280668 C304.388596,38.7219762 302.083505,43.8604708 298.591403,47.8990571 C297.235249,49.2432861 294.480052,51.0945959 292.380462,52.0889774 C290.458186,52.9993948 288.932732,53.3714203 286.366694,53.4691864 C278.869352,53.5762906 272.087304,50.31365 265.417093,47.2089526 C253.035593,41.2942758 241.171221,34.2987927 229.235899,27.5409738 C227.832092,26.7558636 225.929407,25.7382473 224.060115,24.7805558 C222.900771,24.1865927 218.978122,22.1484104 217.799881,21.5272059 C199.733339,11.6098755 175.995022,13.2020847 162.000002,26.8015761 C148.004982,13.2020847 124.266664,11.6098755 106.200122,21.5272059 C105.021881,22.1484104 101.099232,24.1865927 99.9398881,24.7805558 C98.0705961,25.7382473 96.1679109,26.7558636 94.7641043,27.5409738 C82.8287789,34.2987927 70.9644074,41.2942758 58.5829071,47.2089526 C51.9126959,50.31365 45.1306484,53.5762906 37.6333056,53.4691864 C35.0672683,53.3714203 33.541814,52.9993948 31.6195377,52.0889774 C29.5199479,51.0945959 26.764751,49.2432861 25.408597,47.8990571 C21.9164947,43.8604708 19.6114036,38.7219762 21.4158495,31.9280668 C31.9744959,9.34141128 53.3933527,17.6546233 49.9566006,39.6670961 C49.6252873,48.1240548 54.0478714,44.0901061 56.7590594,38.829112 C58.9062388,35.2148572 59.841011,31.0716274 60.3574616,26.9001625 C60.5361474,13.725523 56.0343472,1.25742443 41.2317078,0.57760444 C41.2317078,0.57760444 56.0343472,1.25742443 41.2317078,0.57760444 L41.2317078,0.57760444 L41.2317078,0.57760444 Z M41.2317078,0.57760444" id="path2833" sketch:type="MSShapeGroup"></path>
            </g>
        </g>
    </g>
</svg>