<?xml version="1.0" encoding="UTF-8" standalone="no"?>
<svg width="512px" height="100px" viewBox="0 0 512 100" version="1.1" xmlns="http://www.w3.org/2000/svg" xmlns:xlink="http://www.w3.org/1999/xlink" xmlns:sketch="http://www.bohemiancoding.com/sketch/ns">
    <title>512</title>
    <description>Created with Sketch (http://www.bohemiancoding.com/sketch)</description>
    <defs></defs>
    <g id="Page-1" stroke="none" stroke-width="1" fill="none" fill-rule="evenodd" sketch:type="MSPage">
        <g id="512" sketch:type="MSArtboardGroup" fill="#502D16">
            <g id="Mustache-11" sketch:type="MSLayerGroup" transform="translate(99.000000, 0.000000)">
                <path d="M127.975362,0.00220050411 C89.660582,-0.0484353517 29.2788238,37.4091877 8.32990133,77.8884602 C-4.49047765,102.661038 -3.19650497,104.413218 17.0050038,89.4892284 C27.4691926,81.7587019 54.6774073,72.8980874 83.1163787,67.9633595 C115.083717,62.41647 135.720262,55.3263294 144.067845,46.9853053 L156.516128,34.5789306 L168.932168,46.9853053 C177.279735,55.3263294 197.916296,62.41647 229.883627,67.9633595 C258.322589,72.8980874 285.530816,81.7587019 295.994998,89.4892284 C316.196507,104.413228 317.490477,102.661038 304.670096,77.8884602 C280.728473,31.6264372 205.308593,-10.6921297 170.157639,2.41902618 C166.357679,3.83636187 161.599513,4.58252429 156.80637,4.6747318 C152.031661,4.73721495 147.366816,3.87865155 142.842359,2.41902618 C138.448495,0.780132082 133.448903,0.0094290691 127.975362,0.00220050411 C127.975362,0.00220050411 133.448903,0.0094290691 127.975362,0.00220050411 L127.975362,0.00220050411 L127.975362,0.00220050411 Z M127.975362,0.00220050411" id="path2858" sketch:type="MSShapeGroup"></path>
            </g>
        </g>
    </g>
</svg>